# xmcd
#
# Track frame offsets: 
#        300
#        19903
#        34210
#        56974
#        81535
#        103375
#        124226
#        149799
#        171177
#        193621
#        208319
#        217377
#        238231
#
# Disc length: 3362 seconds
#
# Revision: 0
# Processed by: cddbd v1.5.2PL0 Copyright (c) Steve Scherf et al.
# Submitted via: ExactAudioCopy v0.99pb3
#
DISCID=e50d1e0d
DTITLE=Automatic Slim - What Did I Do Wrong
DYEAR=2004
DGENRE=Blues
TTITLE0=My Little Country Baby
TTITLE1=Do The Pelican
TTITLE2=What Did I Do Wrong
TTITLE3=On My Way
TTITLE4=Junko Partner
TTITLE5=It's Raining
TTITLE6=Anyway The Wind Blows
TTITLE7=Trouble I Had All My Daya
TTITLE8=That Train Don't Stop Here Anymore
TTITLE9=I'm Holding On
TTITLE10=Juicy
TTITLE11=Don't Come Knockin'
TTITLE12=John Hurt
EXTD=
EXTT0=
EXTT1=
EXTT2=
EXTT3=
EXTT4=
EXTT5=
EXTT6=
EXTT7=
EXTT8=
EXTT9=
EXTT10=
EXTT11=
EXTT12=
PLAYORDER=
